<svg id="Layer_1" data-name="Layer 1" xmlns="http://www.w3.org/2000/svg" viewBox="0 0 16 16"><defs><style>.cls-1{fill:#103c54;}.cls-2{fill:#04c4d9;}.cls-3{fill:#fff;}</style></defs><title>favicon</title><rect class="cls-1" width="16" height="16"/><polygon class="cls-2" points="16 5.24 10.76 0 16 0 16 5.24"/><path class="cls-3" d="M2,5.56H6.39A1,1,0,0,1,7.57,6.72c0,.67-.21,1.07-.6,1.21V8c.49.08.74.5.74,1.26s-.44,1.18-1.32,1.18H2ZM3.4,9.23H6c.23,0,.34-.15.34-.44s-.11-.4-.35-.4H3.4Zm0-1.76H6c.17,0,.26-.12.26-.37S6.12,6.72,6,6.72H3.4Z"/><path class="cls-3" d="M9.63,8.53v.21a.5.5,0,0,0,.13.32.46.46,0,0,0,.31.15H14l-1.34,1.24H9.74a1.62,1.62,0,0,1-1.11-.37,1.35,1.35,0,0,1-.38-1V6.92a1.32,1.32,0,0,1,.39-1,1.54,1.54,0,0,1,1.1-.37H14V6.78H10.07a.42.42,0,0,0-.32.14.64.64,0,0,0-.12.36V7.5h3.74v1Z"/><polygon class="cls-2" points="13.96 9.53 12.96 10.45 13.96 10.45 13.96 9.53"/></svg>